# xmcd
#
# Track frame offsets:
#	150
#	6204
#	19808
#	37546
#	58466
#	71418
#	90663
#	125775
#	144759
#	158404
#	179810
#	204699
#	220114
#	241455
#	267533
#
# Disc length: 3977 seconds
#
# Revision: 1
# Processed by: cddbd v1.5.1PL0 Copyright (c) Steve Scherf et al.
# Submitted via: CDex 1.50Beta5
#
DISCID=d60f870f
DTITLE=3B LAB.☆ - LABORATORY#1
DYEAR=1900
DGENRE=Rock
TTITLE0=SOUND EFFECT ORCHESTRA
TTITLE1=3B LAB.☆のテーマ
TTITLE2=一期一会
TTITLE3=プレゼント
TTITLE4=走れ!メロス
TTITLE5=山茶花谷町線
TTITLE6=Overtime
TTITLE7=Lucky
TTITLE8=money
TTITLE9=EASY EASY EASY
TTITLE10=君がいるから僕がいる
TTITLE11=ガラクタと手紙
TTITLE12=恋愛至上主義
TTITLE13=everyone
TTITLE14=今日も星が綺麗〜ホシトボクトネコノウタ〜
EXTD=
EXTT0=
EXTT1=
EXTT2=
EXTT3=
EXTT4=
EXTT5=
EXTT6=
EXTT7=
EXTT8=
EXTT9=
EXTT10=
EXTT11=
EXTT12=
EXTT13=
EXTT14=
PLAYORDER=
